<svg width="128" height="42" viewBox="0 0 128 42" fill="none" xmlns="http://www.w3.org/2000/svg">
<path d="M48.587 36.1361L49.8538 28.2808H46.7451L46.9088 27.2712H54.3663L54.2026 28.2808H51.1198L49.8531 36.1361H48.5863H48.587Z" fill="white"/>
<path d="M57.7966 33.9531L58.9405 34.0622C58.8091 34.5908 58.4645 35.0927 57.9058 35.5681C57.3471 36.0442 56.6606 36.2819 55.8463 36.2819C55.3378 36.2819 54.8646 36.172 54.4266 35.9523C53.9885 35.7325 53.646 35.413 53.3983 34.9936C53.1505 34.5742 53.0098 34.0967 52.9767 33.5603C52.9336 32.8587 53.0651 32.1787 53.371 31.5195C53.6769 30.8602 54.0962 30.3705 54.6276 30.0502C55.159 29.7299 55.7464 29.5691 56.3884 29.5691C57.2071 29.5691 57.8756 29.8068 58.3941 30.2829C58.9125 30.759 59.1969 31.4074 59.2479 32.2304C59.2673 32.5449 59.2572 32.8673 59.217 33.1977H54.163C54.1537 33.3226 54.1515 33.4353 54.158 33.5366C54.1953 34.1376 54.3713 34.5958 54.6858 34.9125C55.0003 35.2292 55.3709 35.3871 55.7974 35.3871C56.1981 35.3871 56.5845 35.2643 56.9572 35.018C57.3299 34.7724 57.6092 34.4177 57.7959 33.9538L57.7966 33.9531ZM54.2995 32.3625H58.1514C58.1485 32.2498 58.1456 32.1686 58.1427 32.1205C58.109 31.5726 57.9366 31.1518 57.6257 30.8595C57.3148 30.5673 56.9284 30.4215 56.4674 30.4215C55.9676 30.4215 55.5217 30.5831 55.1303 30.9055C54.7389 31.2279 54.4618 31.7141 54.2995 32.3632V32.3625Z" fill="white"/>
<path d="M64.8444 33.7958L66.0214 33.9107C65.778 34.7128 65.3981 35.3089 64.881 35.6974C64.364 36.0866 63.7615 36.2812 63.0722 36.2812C62.3268 36.2812 61.7085 36.0557 61.2173 35.604C60.7261 35.1523 60.4561 34.5218 60.4058 33.7111C60.3628 33.0095 60.4683 32.3201 60.724 31.643C60.9796 30.9658 61.3731 30.4509 61.9052 30.0976C62.4374 29.745 63.0585 29.5684 63.7694 29.5684C64.4803 29.5684 65.1022 29.763 65.5568 30.1522C66.0113 30.5414 66.2591 31.0563 66.2986 31.6975L65.1525 31.7701C65.123 31.3629 64.9773 31.0441 64.7152 30.8143C64.4531 30.5845 64.1199 30.4696 63.7149 30.4696C63.2452 30.4696 62.8467 30.6089 62.5192 30.8868C62.1918 31.1647 61.9476 31.5869 61.786 32.1535C61.6252 32.7201 61.5605 33.2651 61.5929 33.7894C61.6266 34.3373 61.781 34.7487 62.0568 35.0231C62.3325 35.2974 62.6592 35.4345 63.0384 35.4345C63.4176 35.4345 63.7723 35.2995 64.1026 35.0295C64.433 34.7595 64.68 34.348 64.8437 33.7958H64.8444Z" fill="white"/>
<path d="M66.8691 36.1361L68.2996 27.2705H69.4694L68.9236 30.675C69.3344 30.28 69.7222 29.9971 70.0862 29.8255C70.4503 29.6538 70.8309 29.5684 71.2273 29.5684C71.796 29.5684 72.2463 29.7084 72.578 29.9885C72.9098 30.2685 73.09 30.6383 73.118 31.0979C73.1317 31.3234 73.0886 31.7392 72.9881 32.3438L72.3755 36.1354H71.2057L71.8384 32.2469C71.9282 31.6825 71.9691 31.3277 71.9598 31.1827C71.9468 30.973 71.8585 30.8021 71.6955 30.6685C71.5325 30.5357 71.3041 30.4689 71.0111 30.4689C70.5889 30.4689 70.1925 30.573 69.822 30.7805C69.4514 30.9881 69.1685 31.2724 68.9732 31.6329C68.7778 31.9941 68.6148 32.5751 68.4827 33.3779L68.0389 36.1354H66.8691V36.1361Z" fill="white"/>
<path d="M74.2295 36.1361L75.2679 29.7141H76.3278L76.1447 30.8329C76.5784 30.3935 76.9899 30.0732 77.3776 29.8714C77.7661 29.6696 78.169 29.5691 78.5869 29.5691C79.1427 29.5691 79.5872 29.7106 79.9219 29.9928C80.2558 30.275 80.4375 30.652 80.4669 31.1238C80.4813 31.3615 80.449 31.7363 80.3685 32.2483L79.7359 36.1368H78.5661L79.226 32.0666C79.2921 31.6717 79.3194 31.3794 79.3079 31.1898C79.295 30.9759 79.2052 30.8028 79.04 30.6699C78.8742 30.5371 78.6429 30.4703 78.3456 30.4703C77.7468 30.4703 77.2261 30.6721 76.7838 31.0749C76.3414 31.4778 76.0405 32.1693 75.8811 33.1495L75.4 36.1368H74.2302L74.2295 36.1361Z" fill="white"/>
<path d="M81.6478 33.6989C81.5702 32.4451 81.9006 31.4067 82.638 30.5845C83.247 29.9073 84.0786 29.5684 85.1342 29.5684C85.9614 29.5684 86.6429 29.8104 87.1793 30.2944C87.715 30.7784 88.0087 31.4311 88.0597 32.2533C88.1049 32.9908 87.9879 33.6773 87.7085 34.3121C87.4285 34.9469 87.0055 35.4338 86.4382 35.7728C85.8709 36.111 85.262 36.2804 84.6114 36.2804C84.0771 36.2804 83.5845 36.1734 83.1342 35.9602C82.684 35.7462 82.3314 35.4439 82.0765 35.0532C81.8216 34.6626 81.6787 34.2109 81.6471 33.6989H81.6478ZM82.8111 33.5897C82.8484 34.1944 83.0316 34.6532 83.3612 34.9656C83.6908 35.278 84.0943 35.4345 84.5726 35.4345C84.8225 35.4345 85.0674 35.3871 85.3072 35.2923C85.5471 35.1976 85.7661 35.0532 85.9657 34.86C86.1646 34.6669 86.3312 34.4457 86.4641 34.198C86.5976 33.9502 86.7003 33.6831 86.7736 33.3966C86.8827 32.9973 86.9258 32.6145 86.9028 32.2476C86.8669 31.6674 86.6831 31.2164 86.3506 30.8961C86.0181 30.5759 85.6153 30.4157 85.1413 30.4157C84.7751 30.4157 84.4462 30.4976 84.1547 30.6606C83.8631 30.8236 83.6053 31.0627 83.3813 31.3773C83.1572 31.6918 83.0007 32.0573 82.9124 32.4745C82.824 32.8917 82.7896 33.2637 82.8097 33.5904L82.8111 33.5897Z" fill="white"/>
<path d="M88.8613 36.1361L90.2918 27.2705H91.4616L90.0311 36.1361H88.8613Z" fill="white"/>
<path d="M91.9486 33.6989C91.871 32.4451 92.2013 31.4067 92.9388 30.5845C93.5478 29.9073 94.3793 29.5684 95.4349 29.5684C96.2622 29.5684 96.9437 29.8104 97.4801 30.2944C98.0158 30.7784 98.3095 31.4311 98.3605 32.2533C98.4057 32.9908 98.2887 33.6773 98.0093 34.3121C97.7293 34.9469 97.3063 35.4338 96.739 35.7728C96.1717 36.111 95.5628 36.2804 94.9122 36.2804C94.3779 36.2804 93.8853 36.1734 93.435 35.9602C92.9848 35.7462 92.6322 35.4439 92.3773 35.0532C92.1223 34.6626 91.9794 34.2109 91.9479 33.6989H91.9486ZM93.1119 33.5897C93.1492 34.1944 93.3323 34.6532 93.662 34.9656C93.9916 35.278 94.3951 35.4345 94.8734 35.4345C95.1233 35.4345 95.3682 35.3871 95.608 35.2923C95.8478 35.1976 96.0669 35.0532 96.2665 34.86C96.4654 34.6669 96.632 34.4457 96.7649 34.198C96.8984 33.9502 97.0011 33.6831 97.0744 33.3966C97.1835 32.9973 97.2266 32.6145 97.2036 32.2476C97.1677 31.6674 96.9839 31.2164 96.6514 30.8961C96.3189 30.5759 95.9161 30.4157 95.4421 30.4157C95.0759 30.4157 94.747 30.4976 94.4555 30.6606C94.1639 30.8236 93.9061 31.0627 93.6821 31.3773C93.458 31.6918 93.3015 32.0573 93.2131 32.4745C93.1248 32.8917 93.0903 33.2637 93.1105 33.5904L93.1119 33.5897Z" fill="white"/>
<path d="M99.2244 36.7163L100.414 36.819C100.42 37.0689 100.465 37.2563 100.545 37.3813C100.626 37.5062 100.748 37.6032 100.912 37.6714C101.128 37.7597 101.405 37.8043 101.741 37.8043C102.447 37.8043 102.945 37.6326 103.234 37.2901C103.422 37.0603 103.579 36.5605 103.704 35.79L103.788 35.2701C103.216 35.8467 102.587 36.1347 101.903 36.1347C101.219 36.1347 100.614 35.8955 100.117 35.418C99.62 34.9405 99.3443 34.264 99.2904 33.3894C99.2459 32.6677 99.3895 32.0042 99.7199 31.3995C100.051 30.7949 100.461 30.3382 100.951 30.0294C101.44 29.7213 101.954 29.5669 102.492 29.5669C103.393 29.5669 104.111 29.9662 104.647 30.764L104.816 29.712H105.888L104.888 35.9106C104.779 36.5921 104.614 37.1228 104.392 37.5041C104.17 37.8854 103.847 38.1805 103.422 38.3902C102.998 38.5999 102.5 38.7048 101.927 38.7048C101.354 38.7048 100.896 38.638 100.489 38.5051C100.083 38.3723 99.773 38.1777 99.5612 37.9213C99.3493 37.6649 99.233 37.372 99.2129 37.0416C99.2064 36.9411 99.2107 36.832 99.2251 36.7149L99.2244 36.7163ZM100.474 33.2939C100.501 33.7334 100.567 34.0637 100.671 34.2856C100.819 34.5958 101.018 34.8328 101.267 34.9965C101.517 35.1602 101.787 35.2414 102.08 35.2414C102.464 35.2414 102.837 35.1157 103.201 34.8636C103.564 34.6116 103.847 34.2217 104.049 33.6939C104.252 33.1653 104.338 32.6619 104.309 32.1823C104.276 31.6537 104.094 31.2336 103.762 30.9213C103.43 30.6089 103.034 30.4524 102.573 30.4524C102.289 30.4524 102.017 30.5242 101.759 30.6671C101.501 30.81 101.265 31.0275 101.053 31.3198C100.841 31.6121 100.688 31.9618 100.595 32.369C100.501 32.7761 100.461 33.0849 100.474 33.2939Z" fill="white"/>
<path d="M106.568 36.1361L107.607 29.7141H108.777L107.738 36.1361H106.568ZM107.804 28.5099L108.005 27.2704H109.169L108.968 28.5099H107.804Z" fill="white"/>
<path d="M114.46 33.9531L115.604 34.0622C115.472 34.5908 115.128 35.0927 114.569 35.5681C114.01 36.0442 113.324 36.2819 112.509 36.2819C112.001 36.2819 111.528 36.172 111.09 35.9523C110.652 35.7325 110.309 35.413 110.061 34.9936C109.814 34.5742 109.673 34.0967 109.64 33.5603C109.597 32.8587 109.728 32.1787 110.034 31.5195C110.34 30.8602 110.759 30.3705 111.291 30.0502C111.822 29.7299 112.409 29.5691 113.051 29.5691C113.869 29.5691 114.538 29.8068 115.056 30.2829C115.575 30.759 115.859 31.4074 115.91 32.2304C115.93 32.5449 115.92 32.8673 115.879 33.1977H110.825C110.816 33.3226 110.814 33.4353 110.82 33.5366C110.858 34.1376 111.034 34.5958 111.348 34.9125C111.663 35.2292 112.033 35.3871 112.46 35.3871C112.86 35.3871 113.247 35.2643 113.62 35.018C113.992 34.7724 114.272 34.4177 114.458 33.9538L114.46 33.9531ZM110.963 32.3625H114.814C114.812 32.2498 114.809 32.1686 114.806 32.1205C114.772 31.5726 114.6 31.1518 114.289 30.8595C113.978 30.5673 113.592 30.4215 113.13 30.4215C112.631 30.4215 112.185 30.5831 111.793 30.9055C111.402 31.2279 111.125 31.7141 110.963 32.3632V32.3625Z" fill="white"/>
<path d="M116.889 33.9409L118.055 33.8741C118.074 34.1886 118.142 34.4565 118.26 34.6784C118.377 34.9003 118.578 35.0819 118.865 35.2227C119.151 35.3642 119.48 35.4345 119.851 35.4345C120.368 35.4345 120.75 35.3376 120.996 35.1444C121.243 34.9512 121.358 34.7229 121.342 34.4608C121.33 34.2712 121.241 34.0917 121.076 33.9229C120.906 33.7535 120.504 33.5452 119.871 33.2967C119.238 33.049 118.831 32.8745 118.653 32.774C118.354 32.6088 118.125 32.4142 117.964 32.1901C117.804 31.9661 117.715 31.7097 117.697 31.4189C117.666 30.9112 117.855 30.4753 118.263 30.1127C118.672 29.75 119.263 29.5684 120.039 29.5684C120.901 29.5684 121.568 29.7551 122.041 30.1278C122.514 30.5005 122.779 30.9916 122.833 31.6006L121.693 31.6731C121.653 31.2861 121.487 30.9794 121.197 30.7539C120.908 30.5285 120.511 30.415 120.007 30.415C119.602 30.415 119.292 30.5019 119.079 30.675C118.866 30.848 118.765 31.0354 118.777 31.2372C118.789 31.439 118.898 31.6164 119.101 31.7693C119.237 31.8742 119.581 32.0358 120.132 32.2533C121.051 32.616 121.633 32.9025 121.879 33.1122C122.27 33.4468 122.481 33.854 122.51 34.3337C122.529 34.6525 122.445 34.9649 122.254 35.2708C122.064 35.5774 121.76 35.8223 121.343 36.0054C120.926 36.1885 120.426 36.2804 119.844 36.2804C119.052 36.2804 118.366 36.0973 117.788 35.7304C117.21 35.3634 116.909 34.7667 116.889 33.9402L116.889 33.9409Z" fill="white"/>
<path d="M49.4059 5.83661H64.0674L63.6222 9.61668H54.4434L54.1116 12.4302H62.6262L62.201 16.0415H53.6865L53.2758 19.5322H62.7202L62.2484 23.5414H47.3213L49.4067 5.83661H49.4059Z" fill="white"/>
<path d="M64.4414 10.7154H69.5557L71.0867 18.8435L74.6262 10.7154H79.5861L72.6249 23.5413H68.2653L64.4421 10.7154H64.4414Z" fill="white"/>
<path d="M78.5709 17.1941C78.8014 15.2373 79.6517 13.6251 81.1209 12.357C82.5908 11.0888 84.4486 10.4547 86.6948 10.4547C89.2634 10.4547 91.1161 11.1994 92.2529 12.6887C93.1663 13.8887 93.5196 15.3658 93.3128 17.1208C93.0808 19.0935 92.2364 20.7099 90.7793 21.9702C89.3223 23.2304 87.4387 23.8602 85.1279 23.8602C83.0669 23.8602 81.462 23.3374 80.313 22.2904C78.9034 20.9943 78.3225 19.2952 78.5702 17.1941H78.5709ZM83.5 17.1819C83.365 18.3251 83.4971 19.1703 83.8956 19.7175C84.2942 20.2654 84.8435 20.539 85.5444 20.539C86.2453 20.539 86.8664 20.269 87.3849 19.7297C87.9033 19.1904 88.233 18.3251 88.373 17.133C88.5037 16.0221 88.3715 15.1949 87.9773 14.6513C87.5824 14.1077 87.0467 13.8362 86.3709 13.8362C85.6543 13.8362 85.0295 14.112 84.4974 14.6635C83.9653 15.215 83.6335 16.0545 83.5007 17.1812L83.5 17.1819Z" fill="white"/>
<path d="M96.53 5.83661H101.554L100.477 14.9759L104.651 10.7161H110.702L105.572 15.2092L109.457 23.5421H103.919L101.926 18.4005L99.8619 20.2087L99.4691 23.5414H94.4453L96.5307 5.83661H96.53Z" fill="white"/>
<path d="M124.466 18.3775H114.611C114.607 19.1667 114.751 19.7541 115.043 20.1412C115.454 20.697 116.04 20.9742 116.806 20.9742C117.289 20.9742 117.762 20.8535 118.225 20.6115C118.509 20.4586 118.826 20.1886 119.178 19.8022L123.969 20.2496C123.076 21.5379 122.074 22.4613 120.961 23.0207C119.848 23.5801 118.314 23.8602 116.357 23.8602C114.658 23.8602 113.35 23.6204 112.432 23.1421C111.514 22.6631 110.797 21.9019 110.279 20.8593C109.762 19.8166 109.586 18.5908 109.752 17.1819C109.988 15.1769 110.82 13.5548 112.251 12.3146C113.681 11.0752 115.527 10.4547 117.79 10.4547C119.626 10.4547 121.042 10.7326 122.04 11.2877C123.037 11.8435 123.751 12.6485 124.183 13.7034C124.614 14.7583 124.73 16.1313 124.531 17.8217L124.466 18.3768L124.466 18.3775ZM119.744 16.0229C119.759 15.0728 119.584 14.3921 119.218 13.982C118.852 13.5713 118.33 13.3659 117.654 13.3659C116.872 13.3659 116.212 13.6761 115.673 14.2958C115.329 14.6822 115.072 15.2581 114.901 16.0229H119.744Z" fill="white"/>
<path d="M21.4863 18.0371C13.822 20.5627 6.98933 20.6058 6.3057 18.1427C6.03857 17.2479 6.63244 16.1521 7.85033 14.9838C4.81995 16.6476 3.03763 18.4249 3.33492 19.8022C3.8699 22.1899 10.4649 22.4771 18.0402 20.414C24.19 18.7631 29.1212 16.0839 30.4583 13.8528C28.2006 15.3493 25.0811 16.8767 21.4863 18.0371Z" fill="white"/>
<path d="M19.2347 25.5908C12.4437 27.7925 6.38936 27.8306 5.784 25.6827C5.54703 24.9029 6.0734 23.9471 7.1527 22.9288C4.46772 24.3794 2.88862 25.929 3.15145 27.1297C3.62539 29.2115 9.46857 29.4614 16.1806 27.6633C21.6296 26.2242 25.9985 23.8882 27.1834 21.9422C25.1828 23.2469 22.4188 24.5783 19.234 25.5908H19.2347Z" fill="white"/>
<path d="M18.6403 32.1794C13.9799 33.7053 9.82566 33.7312 9.41059 32.2433C9.2483 31.7026 9.60951 31.0405 10.3499 30.3346C8.50722 31.3399 7.42361 32.4135 7.60457 33.2458C7.92987 34.6884 11.9397 34.8615 16.5456 33.6156C20.2848 32.6181 23.2828 30.9995 24.0957 29.6509C22.7227 30.555 20.8262 31.4778 18.6411 32.1794H18.6403Z" fill="white"/>
<path fill-rule="evenodd" clip-rule="evenodd" d="M24.0064 3.29379C16.7119 3.29379 10.5169 7.89538 8.23047 14.2865C10.7201 9.31579 15.9012 5.90696 21.9225 5.90696C29.3038 5.90696 35.4407 11.0478 36.859 17.8935C37.0615 18.8593 37.1771 19.8819 37.1771 20.9325C37.1771 29.1985 30.3458 35.9013 21.9218 35.9013C21.6611 35.9013 21.4004 35.9013 21.1405 35.8726C22.0668 36.0428 23.0219 36.1282 24.0064 36.1282C33.2405 36.1282 40.7087 28.7713 40.7087 19.7103C40.7087 10.6493 33.2405 3.29379 24.0064 3.29379Z" fill="white"/>
</svg>
